<?xml version="1.0" standalone="no"?>
<!DOCTYPE svg PUBLIC "-//W3C//DTD SVG 20010904//EN"
 "http://www.w3.org/TR/2001/REC-SVG-20010904/DTD/svg10.dtd">
<svg version="1.0" xmlns="http://www.w3.org/2000/svg"
 width="962.000000pt" height="492.000000pt" viewBox="0 0 962.000000 492.000000"
 preserveAspectRatio="xMidYMid meet">

<g transform="translate(0.000000,492.000000) scale(0.100000,-0.100000)"
fill="#000000" stroke="none">
<path d="M4735 4616 c-13 -13 -27 -40 -30 -60 -8 -38 -26 -50 -165 -106 -30
-12 -86 -35 -125 -50 -227 -91 -496 -175 -690 -215 -44 -9 -91 -19 -105 -22
l-25 -5 27 -20 c33 -25 103 -51 216 -78 48 -12 102 -26 120 -31 l32 -11 0
-806 c0 -444 4 -813 8 -820 7 -9 42 -12 143 -10 l134 3 3 224 c1 145 6 229 13
238 9 10 48 13 154 13 79 0 150 -3 159 -6 14 -5 16 -35 16 -228 0 -159 3 -225
12 -234 17 -17 282 -17 296 1 7 8 11 95 12 232 0 160 4 221 13 227 11 7 284
12 289 6 1 -2 5 -109 8 -238 l5 -235 134 -3 c101 -2 136 1 143 10 4 7 8 376 8
820 l0 806 108 26 c192 45 281 79 282 107 0 3 -42 16 -92 29 -113 27 -163 42
-293 87 -55 19 -116 39 -135 45 -19 5 -39 14 -44 19 -6 5 -16 9 -24 9 -8 0
-28 6 -45 14 -18 7 -68 28 -112 46 -44 17 -93 38 -110 45 -186 83 -175 76
-182 117 -11 74 -106 106 -158 54z m-80 -652 c141 -4 310 -2 410 5 133 8 171
8 177 -2 13 -21 10 -771 -4 -785 -16 -16 -909 -17 -939 -2 -18 10 -19 25 -19
390 0 208 3 386 7 395 5 15 15 17 67 11 34 -3 169 -9 301 -12z"/>
<path d="M404 1976 c-3 -19 -3 -39 1 -45 3 -6 35 -11 71 -11 58 0 65 -2 73
-22 4 -13 8 -178 8 -366 0 -368 -1 -361 49 -362 12 0 27 6 33 13 7 9 12 128
13 373 l3 359 65 3 c35 2 70 8 78 14 15 13 8 58 -11 70 -7 4 -94 8 -194 8
l-182 0 -7 -34z"/>
<path d="M882 2002 c-10 -7 -12 -97 -10 -418 l3 -409 34 -3 c20 -2 37 2 42 10
5 7 9 90 9 184 0 170 0 172 23 178 35 9 150 7 167 -4 12 -7 15 -41 17 -177 2
-92 5 -174 8 -180 7 -21 63 -16 75 6 16 31 14 782 -3 805 -17 23 -77 14 -77
-12 -1 -9 -1 -80 0 -158 0 -77 -4 -153 -9 -168 l-11 -27 -92 3 -93 3 -3 174
c-1 108 -7 180 -13 188 -13 14 -47 17 -67 5z"/>
<path d="M1372 2002 c-10 -7 -12 -97 -10 -418 l3 -409 160 0 160 0 9 28 c18
49 3 55 -157 56 l-88 1 3 143 3 142 95 5 95 5 3 38 3 37 -88 0 c-48 0 -94 4
-101 8 -9 7 -12 42 -10 143 l3 134 114 5 c127 6 146 15 123 64 l-12 26 -147 0
c-82 0 -154 -4 -161 -8z"/>
<path d="M1983 1999 c-10 -10 -13 -106 -13 -408 0 -218 4 -402 9 -409 5 -8 22
-12 42 -10 l34 3 3 166 c2 127 6 170 16 178 22 18 113 2 145 -25 25 -22 26
-26 29 -156 4 -150 13 -171 66 -166 l31 3 -3 135 c-4 157 -13 202 -47 228 -32
25 -32 47 1 75 30 26 44 78 44 167 0 122 -26 176 -100 208 -48 20 -241 29
-257 11z m232 -101 c23 -20 27 -33 32 -98 7 -104 -7 -151 -52 -173 -20 -9 -55
-17 -79 -17 -37 0 -45 4 -50 23 -8 29 -8 251 0 271 10 27 116 22 149 -6z"/>
<path d="M2452 1998 c-14 -14 -17 -794 -3 -816 5 -8 22 -12 42 -10 l34 3 3
175 c3 206 0 200 107 200 107 0 104 6 107 -200 l3 -175 34 -3 c20 -2 37 2 42
10 5 7 9 189 9 404 0 432 0 432 -58 419 l-32 -7 0 -171 c0 -95 -4 -178 -8
-185 -6 -9 -34 -12 -103 -10 l-94 3 -3 181 c-2 178 -3 182 -25 188 -32 8 -42
7 -55 -6z"/>
<path d="M2942 2002 c-10 -7 -13 -94 -13 -411 0 -221 3 -406 6 -411 4 -6 73
-10 161 -10 l154 0 12 26 c9 18 9 30 1 42 -8 14 -29 17 -117 18 -59 1 -111 5
-117 11 -6 6 -8 65 -7 144 l3 134 95 5 95 5 0 35 0 35 -87 3 c-57 2 -90 7 -97
16 -8 9 -11 58 -9 142 l3 129 117 3 c115 3 118 3 124 26 3 13 1 34 -6 45 -10
20 -19 21 -158 21 -81 0 -153 -4 -160 -8z"/>
<path d="M3336 1997 c-12 -9 -17 -23 -14 -42 3 -29 4 -30 73 -35 l70 -5 5
-360 c3 -198 9 -366 13 -372 10 -16 59 -17 75 -1 9 9 12 103 12 363 0 192 4
355 8 362 4 7 36 13 72 15 l65 3 3 36 c4 47 -2 49 -204 49 -116 0 -165 -4
-178 -13z"/>
<path d="M3882 1993 c-44 -21 -79 -65 -92 -114 -7 -26 -10 -139 -8 -312 3
-244 5 -276 22 -307 37 -69 78 -91 165 -91 90 0 143 30 172 97 17 42 19 71 19
325 0 260 -1 282 -20 317 -28 52 -41 67 -77 85 -41 22 -137 22 -181 0z m161
-105 l27 -32 0 -264 c0 -215 -3 -268 -15 -292 -19 -36 -43 -50 -89 -50 -42 0
-83 38 -92 85 -3 16 -4 141 -2 277 3 232 4 248 24 275 39 52 102 52 147 1z"/>
<path d="M4268 2000 c-17 -10 -18 -41 -18 -408 0 -218 4 -403 9 -410 5 -8 22
-12 42 -10 l34 3 3 167 c3 193 3 194 91 182 85 -11 95 -30 101 -189 7 -149 14
-168 64 -163 l31 3 3 119 c3 136 -12 208 -53 246 -32 30 -31 35 4 76 83 94 56
321 -43 367 -47 22 -241 34 -268 17z m229 -104 c26 -23 28 -30 32 -111 2 -55
-2 -97 -10 -117 -15 -37 -60 -58 -123 -58 -37 0 -45 3 -50 23 -10 37 -7 247 4
268 17 30 110 27 147 -5z"/>
<path d="M4738 1999 c-17 -9 -18 -39 -18 -407 0 -218 4 -403 9 -410 5 -8 22
-12 42 -10 l34 3 3 409 c2 425 2 426 -38 426 -8 -1 -23 -5 -32 -11z"/>
<path d="M4978 1977 c-70 -53 -76 -85 -77 -388 -1 -310 7 -348 92 -402 38 -25
148 -25 193 -1 67 36 109 157 90 259 -7 34 -9 36 -44 33 l-37 -3 -5 -89 c-5
-81 -8 -90 -33 -112 -38 -32 -95 -33 -125 -1 -36 39 -42 81 -42 312 0 275 12
325 78 338 75 15 113 -23 121 -122 l6 -66 37 -3 c33 -3 37 -1 43 27 11 51 -4
133 -33 175 -37 54 -83 76 -159 76 -54 0 -67 -4 -105 -33z"/>
<path d="M5514 2002 c-15 -10 -24 -37 -41 -127 -16 -87 -33 -174 -58 -305 -9
-47 -20 -107 -25 -135 -4 -27 -13 -68 -18 -90 -6 -22 -12 -69 -14 -105 -3 -64
-3 -65 24 -68 33 -4 48 20 63 103 l11 60 102 3 c116 3 114 4 127 -88 8 -62 25
-82 67 -78 44 4 45 -17 -18 308 -17 85 -27 143 -47 250 -8 41 -20 104 -27 140
-7 36 -14 75 -16 87 -7 36 -32 53 -77 53 -23 0 -47 -4 -53 -8z m76 -231 c0
-15 14 -94 31 -176 16 -81 28 -154 25 -161 -7 -17 -146 -20 -163 -3 -7 7 -7
26 -1 57 28 144 39 204 49 262 15 96 17 99 40 71 10 -13 19 -35 19 -50z"/>
<path d="M5880 2000 c-13 -8 -15 -66 -18 -400 -2 -263 1 -397 8 -410 10 -19
21 -20 158 -20 156 0 172 4 172 47 0 33 -27 42 -127 41 -49 -1 -95 2 -101 6
-9 5 -12 106 -12 366 0 345 -1 360 -19 370 -24 12 -41 13 -61 0z"/>
<path d="M6536 1987 c-27 -15 -48 -38 -65 -72 -26 -48 -26 -54 -29 -296 -3
-203 -1 -259 13 -311 26 -101 75 -139 180 -139 87 0 122 19 165 91 16 27 28
287 16 336 -6 24 -9 25 -84 22 l-77 -3 -3 -37 c-3 -36 -2 -37 35 -40 l38 -3 3
-113 3 -113 -30 -29 c-38 -38 -88 -41 -128 -6 l-28 24 -3 264 c-4 302 1 332
53 354 76 31 135 -14 135 -104 0 -70 6 -82 45 -82 39 0 45 12 45 83 0 50 -22
111 -52 148 -43 52 -163 66 -232 26z"/>
<path d="M7046 1983 c-7 -16 -19 -57 -25 -93 -5 -36 -17 -99 -25 -140 -8 -41
-22 -113 -31 -160 -9 -47 -22 -116 -30 -155 -52 -270 -53 -269 5 -263 26 3 35
22 56 123 l9 40 85 3 c122 4 127 2 135 -60 11 -78 29 -108 66 -108 17 0 32 6
35 14 5 14 -4 77 -41 266 -8 41 -21 113 -30 160 -9 47 -23 119 -31 160 -8 41
-20 104 -26 140 -14 85 -28 100 -89 100 -43 0 -50 -3 -63 -27z m74 -165 c5
-13 14 -48 19 -78 8 -49 23 -124 50 -257 5 -27 4 -46 -2 -52 -6 -6 -44 -11
-84 -11 -56 0 -75 4 -79 15 -3 8 1 47 9 87 17 81 43 223 52 281 7 42 21 48 35
15z"/>
<path d="M7428 1999 c-23 -13 -24 -65 -2 -73 9 -3 65 -6 125 -6 89 0 111 -3
115 -15 4 -8 -55 -159 -131 -334 -111 -259 -136 -326 -133 -357 l3 -39 174 -3
c185 -3 201 1 201 44 0 36 -37 45 -162 43 -59 -1 -111 0 -114 3 -6 6 192 476
207 493 5 5 9 15 9 22 0 7 14 42 30 76 35 75 39 131 11 147 -25 13 -310 13
-333 -1z"/>
<path d="M7870 1984 c-14 -35 -13 -769 0 -795 10 -17 23 -19 163 -19 162 0
177 4 177 47 0 33 -26 42 -121 42 -46 0 -94 0 -107 0 -23 1 -23 1 -20 144 l3
142 95 5 95 5 0 35 0 35 -95 5 -95 5 0 140 0 140 100 2 c131 4 145 7 145 37 0
50 -19 56 -181 56 l-149 0 -10 -26z"/>
<path d="M8310 2001 c-13 -9 -15 -67 -18 -401 -2 -263 1 -397 8 -410 10 -18
21 -20 119 -20 160 0 218 29 246 124 31 105 12 233 -45 291 l-31 32 30 34 c36
38 46 89 39 189 -6 80 -32 124 -87 147 -44 19 -239 29 -261 14z m232 -111 c29
-30 30 -33 27 -109 -5 -96 -19 -116 -89 -126 -89 -12 -90 -12 -90 129 0 67 3
126 7 129 3 4 31 7 60 7 47 0 59 -4 85 -30z m-15 -337 c19 -9 38 -26 42 -37
29 -78 17 -208 -22 -238 -16 -13 -41 -18 -89 -18 l-68 0 0 148 c0 82 3 152 7
155 12 13 95 7 130 -10z"/>
<path d="M8850 1991 c-45 -24 -74 -64 -88 -123 -18 -71 -16 -498 3 -567 24
-93 79 -133 181 -132 74 0 112 17 148 63 39 53 48 128 44 393 -3 235 -4 242
-29 290 -34 67 -83 95 -164 94 -39 0 -72 -6 -95 -18z m165 -92 c19 -19 20 -33
20 -310 l0 -291 -28 -24 c-42 -36 -97 -33 -132 7 l-26 32 3 282 c3 259 5 285
22 303 32 36 104 36 141 1z"/>
<path d="M4222 907 c-20 -21 -22 -34 -22 -151 0 -98 3 -127 13 -124 8 3 13 30
15 76 l3 71 34 7 c43 8 46 29 5 38 -38 7 -50 34 -24 53 10 8 27 12 37 9 22 -5
24 29 1 38 -27 10 -40 7 -62 -17z"/>
<path d="M2130 774 c0 -112 3 -145 13 -142 8 3 13 39 15 124 3 124 -2 164 -18
164 -6 0 -10 -57 -10 -146z"/>
<path d="M2385 908 c-2 -7 -6 -29 -7 -48 l-3 -35 -60 -5 c-83 -7 -105 -28
-105 -97 0 -40 5 -58 20 -73 32 -32 69 -42 103 -30 17 5 41 10 53 10 l24 0 0
145 c0 93 -4 145 -10 145 -6 0 -13 -6 -15 -12z m-36 -139 c32 -35 33 -59 1
-90 -33 -33 -50 -36 -85 -13 -19 12 -25 25 -25 51 0 64 68 96 109 52z"/>
<path d="M3557 914 c-10 -11 -8 -282 2 -288 13 -8 21 19 21 73 0 82 65 119
115 65 19 -21 25 -38 25 -74 0 -30 6 -52 15 -60 13 -11 15 -4 15 58 0 64 -3
73 -30 102 -27 29 -34 32 -82 28 l-53 -3 -3 45 c-3 46 -13 66 -25 54z"/>
<path d="M4666 913 c-8 -8 -8 -256 0 -277 11 -30 24 -5 24 47 0 42 5 58 25 80
31 33 67 35 94 5 22 -23 37 -78 28 -102 -3 -8 0 -22 7 -32 12 -16 14 -15 21
15 10 46 -2 111 -26 141 -17 20 -32 25 -85 28 l-64 4 0 44 c0 41 -10 61 -24
47z"/>
<path d="M5897 914 c-11 -11 -8 -284 2 -284 16 0 25 23 22 52 -1 15 5 43 14
63 21 42 56 55 94 34 22 -13 27 -23 31 -76 5 -65 12 -79 31 -68 8 6 10 27 5
74 -9 85 -28 104 -111 111 l-60 5 -3 40 c-3 41 -13 60 -25 49z"/>
<path d="M7466 900 c-3 -14 -7 -38 -8 -55 -3 -29 -5 -30 -45 -27 -58 5 -79 -4
-103 -42 -27 -45 -26 -87 5 -120 34 -37 72 -50 107 -35 15 6 34 9 43 6 24 -10
28 10 32 137 3 95 1 126 -11 141 -14 20 -14 19 -20 -5z m-29 -132 c15 -14 23
-33 23 -54 0 -68 -100 -81 -129 -18 -15 34 -14 37 14 68 29 32 61 33 92 4z"/>
<path d="M1648 900 c-16 -10 -18 -27 -18 -133 0 -67 5 -129 10 -137 7 -11 28
-15 77 -15 88 0 117 22 115 86 -1 23 -6 47 -11 53 -5 6 -9 33 -8 58 3 64 -21
87 -94 94 -30 3 -62 0 -71 -6z m124 -54 c6 -14 8 -32 5 -40 -12 -32 -101 -32
-114 -1 -3 8 -2 26 1 40 6 22 12 25 51 25 38 0 47 -4 57 -24z m12 -112 c22 -8
21 -61 -1 -72 -10 -5 -33 -12 -51 -15 -52 -10 -94 47 -60 81 13 13 85 16 112
6z"/>
<path d="M3005 891 c-3 -10 -3 -26 1 -35 11 -29 -12 -44 -61 -39 -39 5 -47 2
-74 -24 -16 -17 -33 -42 -37 -57 -8 -33 21 -84 63 -108 27 -16 37 -17 79 -6
27 6 52 14 56 17 9 8 20 235 12 255 -8 22 -31 20 -39 -3z m-27 -117 c32 -22
31 -86 -3 -108 -13 -9 -31 -16 -40 -16 -23 0 -65 45 -65 70 0 26 43 70 67 70
10 0 29 -7 41 -16z"/>
<path d="M4510 879 c-8 -13 -11 -59 -8 -121 3 -94 5 -101 30 -123 32 -27 68
-23 68 7 0 15 -5 19 -20 15 -29 -8 -41 16 -38 75 3 46 6 53 26 56 26 4 29 20
5 29 -23 8 -33 23 -33 50 0 31 -17 38 -30 12z"/>
<path d="M5306 873 c-8 -40 -4 -220 6 -236 10 -15 28 8 28 35 0 21 32 30 91
26 41 -3 44 -5 47 -33 2 -16 7 -34 12 -39 15 -15 21 34 18 152 -3 125 -21 158
-26 47 -2 -38 -8 -75 -14 -82 -6 -7 -29 -13 -53 -13 -58 0 -73 20 -77 99 -3
68 -22 93 -32 44z"/>
<path d="M5570 890 c0 -5 5 -10 10 -10 6 0 10 5 10 10 0 6 -4 10 -10 10 -5 0
-10 -4 -10 -10z"/>
<path d="M6596 893 c-3 -3 -6 -57 -6 -119 0 -112 0 -112 30 -137 33 -28 65
-26 73 5 5 17 2 19 -18 14 -31 -8 -45 17 -45 77 0 37 4 45 26 56 l26 11 -31
29 c-17 16 -31 36 -31 44 0 18 -14 30 -24 20z"/>
<path d="M6926 869 c-23 -27 -26 -39 -26 -108 0 -87 11 -110 65 -135 32 -16
38 -16 69 -1 58 28 70 49 74 129 4 70 3 74 -28 109 -29 33 -37 37 -80 37 -42
0 -52 -4 -74 -31z m121 -21 c20 -21 27 -58 24 -126 -1 -28 -43 -72 -69 -72
-11 0 -31 11 -46 25 -22 21 -26 32 -26 83 0 45 5 66 21 86 26 33 68 34 96 4z"/>
<path d="M1921 804 c-13 -9 -29 -31 -37 -50 -12 -28 -12 -37 1 -69 18 -41 70
-78 100 -70 11 3 37 9 57 12 35 5 38 8 43 47 7 49 -14 107 -47 130 -29 21 -87
20 -117 0z m97 -30 c16 -11 22 -25 22 -54 0 -41 -26 -70 -63 -70 -24 0 -67 44
-67 70 0 26 43 70 67 70 10 0 29 -7 41 -16z"/>
<path d="M2505 812 c-28 -19 -55 -68 -55 -97 0 -80 114 -132 165 -75 22 24 2
37 -30 20 -19 -10 -30 -10 -55 0 -47 20 -30 34 46 40 68 5 69 5 72 35 4 46
-37 85 -91 85 -23 0 -47 -4 -52 -8z m90 -38 c26 -26 12 -39 -40 -39 -27 0 -50
5 -52 11 -6 18 26 44 52 44 13 0 31 -7 40 -16z"/>
<path d="M2709 809 c-15 -9 -7 -172 9 -177 9 -3 12 12 12 53 0 46 4 60 25 80
13 14 31 25 40 25 9 0 15 6 12 13 -4 12 -80 17 -98 6z"/>
<path d="M3141 813 c-31 -12 -54 -47 -55 -83 -2 -79 57 -129 128 -109 21 6 44
8 51 5 18 -6 25 15 25 73 0 46 -21 90 -55 113 -11 9 -73 9 -94 1z m83 -39 c44
-43 40 -78 -10 -111 -24 -16 -28 -15 -59 1 -18 10 -35 26 -38 36 -5 20 17 70
36 82 20 13 55 9 71 -8z"/>
<path d="M3346 798 c-21 -29 -20 -40 5 -72 16 -20 29 -26 59 -26 47 0 58 -14
34 -41 -14 -16 -26 -19 -50 -15 -21 5 -35 2 -43 -8 -11 -13 -8 -16 14 -22 32
-8 92 1 111 17 17 14 18 71 2 87 -7 7 -29 12 -50 12 -28 0 -40 5 -49 21 -14
27 1 39 49 39 22 0 32 5 32 15 0 11 -12 15 -49 15 -40 0 -53 -4 -65 -22z"/>
<path d="M3992 804 c-12 -8 -29 -31 -37 -51 -14 -33 -14 -39 2 -72 10 -20 33
-44 53 -55 35 -18 37 -18 73 -1 24 11 45 31 57 56 18 34 18 40 5 73 -19 44
-50 66 -95 66 -20 0 -46 -7 -58 -16z m97 -32 c32 -25 31 -79 0 -103 -28 -22
-39 -23 -73 -8 -22 11 -36 35 -36 67 0 20 47 62 68 62 11 0 30 -8 41 -18z"/>
<path d="M4943 796 c-24 -21 -28 -32 -28 -76 0 -45 4 -55 29 -75 45 -36 72
-39 113 -14 27 17 32 24 21 30 -9 5 -28 3 -45 -3 -24 -9 -34 -8 -57 7 -15 10
-23 22 -19 26 4 4 40 9 78 11 67 3 70 4 73 29 2 17 -6 37 -23 58 -23 26 -34
31 -70 31 -32 0 -52 -7 -72 -24z m101 -12 c9 -3 16 -17 16 -30 0 -22 -4 -24
-50 -24 -43 0 -50 3 -50 20 0 31 45 49 84 34z"/>
<path d="M5674 796 c-24 -20 -28 -31 -28 -74 0 -57 10 -73 61 -97 27 -13 41
-15 58 -7 27 13 35 7 35 -24 0 -32 -33 -48 -82 -40 -34 6 -39 4 -36 -11 2 -13
14 -19 42 -21 59 -5 82 4 105 44 18 30 21 51 21 138 l0 103 -52 7 c-82 9 -95
8 -124 -18z m110 -22 c25 -25 30 -61 12 -89 -22 -33 -58 -41 -90 -20 -35 23
-37 86 -4 109 29 20 62 20 82 0z"/>
<path d="M6178 798 c-32 -29 -41 -57 -32 -103 12 -68 105 -102 154 -57 28 26
11 37 -33 21 -29 -10 -38 -9 -60 6 -15 9 -24 21 -21 26 3 5 36 9 74 9 60 0 71
3 81 21 9 18 6 27 -19 58 -24 30 -36 36 -73 39 -35 2 -50 -2 -71 -20z m96 -14
c9 -3 16 -17 16 -30 0 -22 -4 -24 -44 -24 -50 0 -62 10 -46 40 11 20 43 26 74
14z"/>
<path d="M6396 798 c-9 -12 -16 -30 -16 -38 0 -26 43 -60 76 -60 44 0 57 -12
40 -36 -10 -13 -27 -19 -55 -20 -46 0 -62 -10 -41 -25 25 -17 104 -5 128 19
26 26 27 40 6 70 -10 14 -25 22 -45 22 -37 0 -69 16 -69 34 0 17 22 26 60 26
16 0 31 4 34 9 8 12 -18 21 -64 21 -29 0 -43 -6 -54 -22z"/>
<path d="M7188 813 l-38 -4 0 -84 c0 -62 4 -84 14 -88 22 -8 26 2 26 60 0 56
22 93 56 93 19 0 13 25 -7 26 -8 0 -31 -1 -51 -3z"/>
<path d="M7578 797 c-34 -31 -43 -76 -25 -119 26 -61 112 -82 152 -38 22 25 3
34 -38 19 -29 -10 -38 -9 -60 6 -15 9 -24 21 -21 26 3 5 36 9 73 9 98 0 115
29 56 93 -34 36 -100 38 -137 4z m96 -13 c9 -3 16 -17 16 -31 0 -23 -3 -24
-47 -21 -51 3 -63 17 -38 42 17 17 42 20 69 10z"/>
<path d="M7820 811 l-35 -6 -3 -75 c-2 -79 9 -118 28 -90 5 8 10 33 10 56 0
41 34 94 60 94 5 0 10 7 10 15 0 16 -11 17 -70 6z"/>
<path d="M5566 788 c-11 -44 -6 -134 9 -154 17 -22 16 -25 18 90 1 51 -2 81
-9 83 -6 2 -14 -6 -18 -19z"/>
</g>
</svg>
